<svg xmlns="http://www.w3.org/2000/svg" xmlns:xlink="http://www.w3.org/1999/xlink" width="500" zoomAndPan="magnify" viewBox="0 0 375 374.999991" height="500" preserveAspectRatio="xMidYMid meet" version="1.0"><defs><clipPath id="be77ec582d"><path d="M 144.691406 144.691406 L 230.191406 144.691406 L 230.191406 230.191406 L 144.691406 230.191406 Z M 144.691406 144.691406 " clip-rule="nonzero"/></clipPath><clipPath id="c9e37213ce"><path d="M 159 160.136719 L 215.957031 160.136719 L 215.957031 220 L 159 220 Z M 159 160.136719 " clip-rule="nonzero"/></clipPath></defs><g clip-path="url(#be77ec582d)"><path fill="#000000" d="M 187.441406 144.691406 C 163.855469 144.691406 144.691406 163.855469 144.691406 187.441406 C 144.691406 211.027344 163.855469 230.191406 187.441406 230.191406 C 211.027344 230.191406 230.191406 211.027344 230.191406 187.441406 C 230.191406 163.855469 211.027344 144.691406 187.441406 144.691406 Z M 187.441406 146.550781 C 210.046875 146.550781 228.332031 164.832031 228.332031 187.441406 C 228.332031 210.046875 210.046875 228.332031 187.441406 228.332031 C 164.832031 228.332031 146.550781 210.046875 146.550781 187.441406 C 146.550781 164.832031 164.832031 146.550781 187.441406 146.550781 Z M 187.441406 146.550781 " fill-opacity="1" fill-rule="nonzero"/></g><g clip-path="url(#c9e37213ce)"><path fill="#ffffff" d="M 180.777344 219.804688 C 179.382812 219.804688 177.648438 219.503906 176.859375 217.167969 C 173.523438 208.765625 170.246094 200.367188 167.066406 192.25 L 160.738281 176.109375 L 160.679688 175.996094 C 160.171875 174.792969 158.964844 172.003906 161.359375 170.121094 C 163.617188 167.691406 165.785156 165.882812 167.949219 164.5625 C 168.722656 164 169.53125 163.734375 170.398438 163.472656 C 170.886719 163.300781 171.414062 163.152344 171.960938 162.90625 L 174.316406 162.039062 C 176.425781 161.25 178.589844 160.441406 180.472656 160.136719 L 180.625 160.136719 C 182.980469 160.136719 184.015625 162.664062 184.355469 163.734375 L 186.164062 168.351562 L 188.007812 173.058594 C 188.589844 174.566406 189.175781 176.035156 189.570312 177.089844 C 189.984375 176.148438 190.324219 175.109375 190.699219 174.039062 C 191.453125 171.777344 192.246094 169.441406 193.714844 167.878906 L 194.917969 166.671875 C 195.558594 166.015625 196.238281 165.316406 196.953125 164.695312 L 196.972656 164.695312 C 198.59375 163.621094 199.457031 162.964844 200.042969 162.511719 C 201.136719 161.683594 201.171875 161.683594 202.621094 161.589844 L 202.886719 161.589844 C 204.902344 162.039062 206.898438 162.773438 208.835938 163.492188 C 209.589844 163.773438 210.382812 164.074219 211.171875 164.339844 C 212.660156 164.753906 214.734375 165.46875 215.5625 166.976562 C 215.976562 167.726562 216.03125 168.574219 215.75 169.535156 C 211.984375 180.402344 207.894531 191.835938 203.207031 204.527344 C 202.847656 205.378906 202.539062 206.242188 202.285156 207.128906 C 201.71875 208.898438 201.152344 210.726562 199.910156 212.007812 L 198.761719 213.175781 C 198.027344 213.925781 197.273438 214.699219 196.464844 215.414062 L 194.769531 216.621094 L 193.46875 217.542969 C 192.113281 218.824219 189.136719 219.070312 186.726562 219.277344 C 185.972656 219.332031 185.257812 219.390625 184.691406 219.464844 L 183.054688 219.632812 C 182.300781 219.742188 181.539062 219.804688 180.777344 219.820312 Z M 180.777344 219.804688 " fill-opacity="1" fill-rule="nonzero"/></g><path fill="#fdb716" d="M 162.996094 175.1875 C 168.382812 188.859375 173.695312 202.550781 179.117188 216.28125 C 179.496094 217.203125 179.796875 217.410156 180.664062 217.410156 C 184.222656 216.902344 187.953125 216.960938 191.378906 216.019531 L 194.9375 213.492188 C 196.085938 212.421875 197.160156 211.289062 198.273438 210.179688 C 203.734375 197.355469 207.632812 184.152344 212.679688 171.136719 C 213.527344 168.6875 213.582031 168.160156 213.300781 167.953125 C 212.171875 166.976562 210.0625 166.671875 208.6875 166.015625 C 206.597656 165.242188 204.617188 164.507812 202.585938 164 C 202.367188 163.957031 202.164062 164.003906 201.980469 164.132812 L 198.402344 166.671875 C 197.445312 167.597656 196.5 168.558594 195.542969 169.519531 C 195.050781 169.988281 194.808594 170.15625 194.488281 171.042969 C 192.847656 175.300781 191.210938 179.539062 189.570312 183.8125 C 187.953125 179.667969 186.273438 175.394531 184.675781 171.25 C 183.714844 168.800781 182.734375 166.277344 181.753906 163.8125 C 181.285156 162.679688 180.890625 162.566406 180.398438 162.605469 C 176.914062 163.585938 173.523438 164.996094 170.097656 166.183594 C 169.023438 166.65625 165.992188 168.859375 165.21875 169.707031 C 164.445312 170.554688 163.695312 171.210938 162.960938 171.964844 C 161.847656 172.71875 162.5625 174.167969 162.996094 175.1875 Z M 162.996094 175.1875 " fill-opacity="1" fill-rule="nonzero"/><path fill="#fdb716" d="M 187.386719 211.6875 C 186.558594 211.6875 186.273438 211.480469 185.898438 210.554688 C 183.148438 203.585938 180.363281 196.507812 177.6875 189.652344 L 172.546875 176.542969 L 169.777344 169.460938 C 169.738281 169.347656 169.683594 169.234375 169.625 169.101562 C 169.304688 168.367188 168.910156 167.425781 169.269531 166.769531 C 169.445312 166.433594 169.722656 166.238281 170.097656 166.183594 L 173.617188 164.902344 C 175.839844 164.074219 178.140625 163.226562 180.398438 162.605469 L 180.492188 162.605469 C 180.871094 162.605469 181.320312 162.757812 181.753906 163.828125 C 182.734375 166.277344 183.714844 168.800781 184.675781 171.25 C 185.257812 172.792969 185.859375 174.320312 186.464844 175.847656 L 187.648438 178.878906 C 188.742188 181.703125 189.847656 184.527344 190.964844 187.351562 C 190.964844 187.371094 190.964844 187.390625 190.984375 187.390625 C 191.226562 188.332031 191.644531 188.746094 191.90625 188.746094 C 192.171875 188.746094 192.394531 188.5 192.640625 187.785156 C 194.335938 183.324219 196.070312 178.800781 197.746094 174.433594 C 198.929688 171.402344 200.097656 168.351562 201.246094 165.316406 C 201.679688 164.207031 202.019531 164 202.492188 164 L 202.585938 164 C 204.617188 164.507812 206.597656 165.242188 208.6875 166.015625 C 209.835938 166.449219 211.023438 166.898438 212.210938 167.296875 C 212.773438 167.484375 213.113281 167.710938 213.300781 167.953125 C 213.488281 168.199219 213.527344 168.6875 212.679688 171.136719 C 212.132812 172.683594 211.417969 174.621094 210.816406 176.183594 C 210.210938 177.746094 209.796875 178.898438 209.761719 179.105469 C 209.761719 179.128906 209.753906 179.15625 209.742188 179.179688 L 209.460938 179.96875 C 206.011719 189.5 202.453125 199.351562 198.96875 209.050781 C 198.609375 210.066406 198.082031 210.519531 197.160156 210.632812 C 195.75 210.761719 194.316406 210.933594 192.941406 211.082031 C 191.132812 211.308594 189.269531 211.515625 187.425781 211.6875 Z M 187.386719 211.6875 " fill-opacity="1" fill-rule="nonzero"/><path fill="#100f0d" d="M 181.832031 216.882812 C 181.675781 216.871094 181.5625 216.796875 181.492188 216.65625 C 181.429688 216.492188 181.460938 216.347656 181.585938 216.226562 L 186.085938 211.988281 C 186.160156 211.914062 186.246094 211.875 186.351562 211.875 L 186.5 211.910156 C 186.785156 212.019531 187.082031 212.070312 187.386719 212.0625 L 187.460938 212.0625 C 189.328125 211.894531 191.191406 211.6875 193 211.460938 L 193.035156 211.460938 L 195.84375 211.140625 L 195.878906 211.140625 C 196.039062 211.132812 196.152344 211.203125 196.21875 211.347656 C 196.296875 211.507812 196.273438 211.652344 196.144531 211.78125 C 195.765625 212.175781 195.257812 212.683594 194.730469 213.175781 L 194.675781 213.210938 L 191.71875 215.300781 L 191.285156 215.621094 L 191.152344 215.679688 C 189.007812 216.261719 186.691406 216.449219 184.449219 216.640625 L 181.886719 216.882812 Z M 181.832031 216.882812 " fill-opacity="1" fill-rule="nonzero"/><path fill="#000000" d="M 180.605469 218.164062 C 179.457031 218.164062 178.890625 217.730469 178.421875 216.5625 C 175.183594 208.351562 171.925781 200.007812 168.761719 191.949219 L 168.664062 191.722656 C 166.59375 186.390625 164.429688 180.894531 162.300781 175.46875 L 162.242188 175.320312 C 161.808594 174.320312 161 172.457031 162.46875 171.382812 L 164.671875 169.179688 C 165.371094 168.425781 167.59375 166.769531 168.949219 165.9375 C 169.21875 165.695312 169.535156 165.53125 169.890625 165.449219 L 170.304688 165.300781 L 172.546875 164.488281 L 173.335938 164.207031 L 175.898438 163.265625 C 177.574219 162.664062 178.949219 162.230469 180.191406 161.871094 L 180.492188 161.832031 C 180.632812 161.832031 180.773438 161.851562 180.90625 161.890625 C 181.300781 161.96875 181.613281 162.167969 181.847656 162.492188 L 181.925781 162.550781 L 181.925781 162.585938 C 182.128906 162.871094 182.292969 163.179688 182.414062 163.507812 C 182.425781 163.507812 182.433594 163.515625 182.433594 163.527344 L 182.753906 164.355469 C 183.355469 165.902344 183.976562 167.425781 184.5625 168.953125 L 186.691406 174.394531 L 189.550781 181.742188 L 190.34375 179.648438 C 191.5 176.699219 192.632812 173.742188 193.753906 170.78125 C 193.96875 170.113281 194.347656 169.554688 194.882812 169.101562 L 195.015625 168.972656 L 195.316406 168.671875 C 196.144531 167.824219 196.992188 166.957031 197.859375 166.128906 L 197.933594 166.050781 L 201.566406 163.492188 L 201.625 163.492188 L 201.871094 163.359375 L 201.945312 163.359375 C 202.097656 163.300781 202.253906 163.269531 202.414062 163.265625 L 202.753906 163.265625 C 204.828125 163.792969 206.804688 164.527344 208.914062 165.316406 L 210.402344 165.863281 L 210.628906 165.9375 C 211.242188 166.121094 211.84375 166.332031 212.433594 166.578125 C 213.09375 166.824219 213.546875 167.089844 213.828125 167.425781 L 213.902344 167.484375 L 213.960938 167.558594 L 214 167.617188 L 214.054688 167.691406 L 214.09375 167.765625 C 214.09375 167.785156 214.109375 167.824219 214.109375 167.839844 L 214.148438 167.9375 C 214.144531 167.964844 214.152344 167.988281 214.167969 168.011719 L 214.167969 168.105469 C 214.1875 168.132812 214.191406 168.164062 214.1875 168.199219 L 214.1875 168.480469 C 214.179688 168.511719 214.171875 168.542969 214.167969 168.574219 C 214.171875 168.609375 214.167969 168.640625 214.148438 168.671875 C 214.152344 168.710938 214.144531 168.746094 214.128906 168.78125 C 214.128906 168.78125 214.109375 168.894531 214.109375 168.914062 C 214.101562 168.972656 214.089844 169.027344 214.074219 169.085938 C 214.066406 169.117188 214.058594 169.148438 214.054688 169.179688 L 214.015625 169.292969 C 214 169.367188 214 169.40625 213.980469 169.480469 L 213.941406 169.554688 L 213.886719 169.800781 L 213.375 171.324219 L 213.375 171.363281 C 212.847656 172.90625 212.113281 174.847656 211.53125 176.390625 L 211.53125 176.429688 C 211.15625 177.410156 210.609375 178.878906 210.515625 179.179688 C 210.515625 179.246094 210.503906 179.308594 210.476562 179.367188 L 208.085938 185.976562 L 207.480469 187.710938 C 205.636719 192.984375 203.734375 198.425781 201.644531 203.851562 C 200.984375 205.660156 200.34375 207.449219 199.703125 209.238281 C 199.53125 209.8125 199.222656 210.300781 198.78125 210.707031 C 198.402344 211.066406 198.046875 211.441406 197.667969 211.816406 L 197.652344 211.816406 C 196.953125 212.535156 196.21875 213.269531 195.464844 213.964844 L 195.410156 214.019531 L 192.132812 216.394531 L 192.132812 216.433594 C 192.132812 216.535156 192.085938 216.597656 191.980469 216.621094 L 191.566406 216.734375 C 189.289062 217.375 186.878906 217.5625 184.542969 217.769531 C 183.28125 217.863281 182 217.976562 180.757812 218.144531 L 180.605469 218.144531 Z M 181.832031 216.507812 L 184.410156 216.261719 C 186.632812 216.074219 188.929688 215.886719 191.058594 215.320312 L 191.492188 215 L 194.46875 212.890625 C 194.957031 212.4375 195.445312 211.96875 195.878906 211.515625 L 193.074219 211.835938 L 193.035156 211.835938 C 191.226562 212.042969 189.363281 212.269531 187.5 212.4375 L 187.386719 212.4375 C 187.027344 212.453125 186.683594 212.390625 186.351562 212.25 Z M 168.457031 168.066406 C 167.273438 168.894531 166.140625 169.800781 165.785156 170.214844 L 165.746094 170.253906 C 164.992188 170.988281 164.238281 171.738281 163.503906 172.492188 L 163.449219 172.53125 C 163.449219 172.550781 163.429688 172.550781 163.429688 172.570312 L 163.375 172.570312 C 162.976562 172.851562 163.035156 173.359375 163.617188 174.695312 L 163.695312 174.886719 C 165.839844 180.328125 168.007812 185.847656 170.097656 191.195312 C 173.261719 199.3125 176.539062 207.691406 179.835938 215.980469 C 179.871094 216.074219 179.890625 216.148438 179.929688 216.226562 L 185.332031 211.121094 C 185.296875 211.027344 185.238281 210.933594 185.203125 210.820312 C 182.414062 203.792969 179.664062 196.730469 176.992188 189.914062 L 176.992188 189.839844 C 175.277344 185.507812 173.582031 181.15625 171.867188 176.804688 L 169.082031 169.726562 C 169.042969 169.648438 169.003906 169.535156 168.949219 169.441406 L 168.949219 169.40625 C 168.753906 168.96875 168.589844 168.523438 168.457031 168.066406 Z M 169.925781 167.105469 C 169.738281 167.464844 170.097656 168.273438 170.324219 168.820312 C 170.382812 168.9375 170.433594 169.054688 170.472656 169.179688 L 173.261719 176.261719 C 174.898438 180.460938 176.558594 184.660156 178.195312 188.878906 L 178.402344 189.425781 C 181.078125 196.261719 183.84375 203.324219 186.59375 210.273438 C 186.859375 210.933594 186.898438 210.933594 187.386719 210.933594 C 189.214844 210.761719 191.058594 210.554688 192.867188 210.347656 L 192.90625 210.347656 C 194.28125 210.179688 195.691406 210.011719 197.085938 209.878906 C 197.285156 209.859375 197.472656 209.804688 197.652344 209.707031 C 198.5 207.730469 199.328125 205.660156 200.210938 203.378906 L 206.652344 185.507812 C 208.292969 180.816406 210.0625 175.808594 211.964844 170.890625 C 212.113281 170.476562 212.453125 169.480469 212.625 168.839844 C 212.625 168.78125 212.640625 168.746094 212.640625 168.707031 L 212.679688 168.539062 L 212.679688 168.445312 C 212.433594 168.253906 212.171875 168.097656 211.890625 167.972656 L 209.910156 167.277344 C 209.382812 167.121094 208.871094 166.933594 208.367188 166.710938 L 206.296875 165.957031 L 206.105469 165.882812 L 205.371094 165.636719 L 204.617188 165.375 L 204.394531 165.316406 L 204.167969 165.242188 L 203.882812 165.148438 L 203.675781 165.089844 L 203.453125 165.015625 L 203.148438 164.941406 L 202.941406 164.882812 L 202.699219 164.808594 L 202.433594 164.753906 C 202.378906 164.753906 202.226562 164.847656 201.945312 165.582031 L 198.554688 174.472656 L 198.460938 174.714844 C 196.859375 178.839844 195.070312 183.53125 193.335938 188.050781 C 192.90625 189.3125 192.265625 189.5 191.90625 189.5 C 191.210938 189.5 190.589844 188.804688 190.25 187.617188 L 189.421875 185.46875 L 189.402344 185.46875 L 187.292969 180.066406 C 186.59375 178.292969 185.917969 176.523438 185.21875 174.773438 C 184.804688 173.71875 184.390625 172.664062 183.996094 171.609375 L 183.882812 171.363281 L 181.058594 164.09375 C 180.964844 163.886719 180.871094 163.71875 180.792969 163.585938 C 180.734375 163.496094 180.660156 163.421875 180.570312 163.359375 L 180.53125 163.359375 L 180.4375 163.398438 C 179.4375 163.679688 178.382812 164.019531 177.179688 164.433594 L 177.121094 164.433594 L 176.367188 164.695312 L 173.902344 165.601562 L 173.808594 165.636719 C 172.734375 166.035156 171.527344 166.484375 170.359375 166.882812 Z M 191.660156 187.089844 L 191.699219 187.183594 C 191.742188 187.351562 191.796875 187.515625 191.867188 187.671875 L 191.925781 187.542969 C 193.640625 183.019531 195.445312 178.332031 197.046875 174.1875 L 197.140625 173.945312 C 198.101562 171.457031 199.0625 168.972656 200.003906 166.464844 L 198.894531 167.277344 C 198.046875 168.085938 197.21875 168.914062 196.40625 169.742188 L 195.9375 170.214844 C 195.558594 170.554688 195.429688 170.683594 195.183594 171.324219 C 194.054688 174.300781 192.917969 177.265625 191.773438 180.214844 L 190.382812 183.832031 Z M 191.660156 187.089844 " fill-opacity="1" fill-rule="nonzero"/></svg>