<svg xmlns="http://www.w3.org/2000/svg" xmlns:xlink="http://www.w3.org/1999/xlink" width="500" zoomAndPan="magnify" viewBox="0 0 375 374.999991" height="500" preserveAspectRatio="xMidYMid meet" version="1.0"><defs><clipPath id="ecf6ffcbf7"><path d="M 247 118 L 282.734375 118 L 282.734375 242 L 247 242 Z M 247 118 " clip-rule="nonzero"/></clipPath><clipPath id="e4e7533d01"><path d="M 220 104.613281 L 236 104.613281 L 236 124 L 220 124 Z M 220 104.613281 " clip-rule="nonzero"/></clipPath><clipPath id="78c4716ee8"><path d="M 219 237 L 236 237 L 236 254.613281 L 219 254.613281 Z M 219 237 " clip-rule="nonzero"/></clipPath><clipPath id="782c5807db"><path d="M 201 104.613281 L 219 104.613281 L 219 124 L 201 124 Z M 201 104.613281 " clip-rule="nonzero"/></clipPath><clipPath id="1c967183d1"><path d="M 201 237 L 218 237 L 218 254.613281 L 201 254.613281 Z M 201 237 " clip-rule="nonzero"/></clipPath><clipPath id="d772f32b99"><path d="M 184 237 L 200 237 L 200 254.613281 L 184 254.613281 Z M 184 237 " clip-rule="nonzero"/></clipPath><clipPath id="910e461c28"><path d="M 184 104.613281 L 199 104.613281 L 199 124 L 184 124 Z M 184 104.613281 " clip-rule="nonzero"/></clipPath><clipPath id="85bc9be739"><path d="M 136.484375 118 L 173 118 L 173 242 L 136.484375 242 Z M 136.484375 118 " clip-rule="nonzero"/></clipPath></defs><g clip-path="url(#ecf6ffcbf7)"><path fill="#fdb716" d="M 261.523438 127.824219 C 275.359375 141.652344 282.976562 160.046875 282.976562 179.609375 C 282.976562 199.175781 275.359375 217.570312 261.523438 231.402344 C 257.960938 234.964844 254.035156 238.164062 249.851562 240.914062 C 249.554688 241.109375 249.226562 241.203125 248.898438 241.203125 C 248.328125 241.203125 247.773438 240.925781 247.441406 240.417969 C 246.910156 239.613281 247.132812 238.53125 247.9375 238 C 251.917969 235.382812 255.664062 232.332031 259.058594 228.9375 C 272.234375 215.761719 279.488281 198.246094 279.488281 179.609375 C 279.488281 160.976562 272.234375 143.460938 259.058594 130.289062 C 255.65625 126.882812 251.914062 123.835938 247.9375 121.214844 C 247.132812 120.691406 246.910156 119.609375 247.441406 118.804688 C 247.964844 117.996094 249.046875 117.773438 249.851562 118.304688 C 254.027344 121.046875 257.953125 124.253906 261.523438 127.824219 Z M 261.523438 127.824219 " fill-opacity="1" fill-rule="nonzero"/></g><path fill="#fdb716" d="M 209.730469 132.800781 C 235.542969 132.800781 256.542969 153.800781 256.542969 179.613281 C 256.542969 205.425781 235.542969 226.421875 209.730469 226.421875 C 183.917969 226.421875 162.921875 205.425781 162.921875 179.613281 C 162.921875 153.800781 183.917969 132.800781 209.730469 132.800781 Z M 243.605469 178.761719 C 243.765625 178.160156 243.59375 177.519531 243.152344 177.078125 C 242.710938 176.636719 242.070312 176.46875 241.472656 176.628906 L 225.746094 180.839844 C 222.035156 181.835938 219.222656 184.648438 218.222656 188.363281 C 217.65625 190.484375 217.746094 192.648438 218.4375 194.621094 C 218.289062 194.667969 218.140625 194.71875 217.992188 194.769531 C 215.183594 195.753906 212.582031 197.152344 210.269531 198.90625 L 210.269531 178.839844 C 213.578125 178.445312 216.46875 176.546875 218.171875 173.597656 C 220.097656 170.269531 220.097656 166.289062 218.171875 162.957031 L 210.035156 148.863281 C 209.722656 148.320312 209.148438 147.992188 208.523438 147.992188 C 207.90625 147.992188 207.328125 148.320312 207.015625 148.863281 L 198.878906 162.957031 C 196.953125 166.289062 196.953125 170.269531 198.878906 173.597656 C 200.578125 176.546875 203.472656 178.441406 206.78125 178.839844 L 206.78125 197.761719 C 205.117188 196.128906 203.179688 194.789062 201.058594 193.804688 C 201.71875 191.859375 201.800781 189.734375 201.238281 187.648438 C 200.242188 183.933594 197.429688 181.117188 193.714844 180.121094 L 177.992188 175.910156 C 177.390625 175.75 176.75 175.921875 176.3125 176.363281 C 175.867188 176.800781 175.699219 177.445312 175.859375 178.046875 L 180.070312 193.765625 C 181.066406 197.484375 183.878906 200.296875 187.597656 201.289062 C 188.527344 201.542969 189.46875 201.664062 190.398438 201.664062 C 193.171875 201.664062 195.839844 200.570312 197.875 198.535156 L 198.484375 197.925781 C 198.820312 197.589844 199.125 197.242188 199.40625 196.875 C 202.164062 198.117188 204.550781 200.082031 206.308594 202.550781 C 204.664062 204.390625 203.25 206.453125 202.113281 208.707031 C 201.679688 209.5625 202.027344 210.613281 202.882812 211.046875 C 203.140625 211.175781 203.402344 211.234375 203.667969 211.234375 C 204.308594 211.234375 204.921875 210.882812 205.226562 210.273438 C 206.382812 207.984375 207.863281 205.917969 209.605469 204.128906 C 209.609375 204.125 209.613281 204.121094 209.617188 204.121094 C 209.667969 204.078125 209.714844 204.039062 209.757812 203.988281 C 209.792969 203.957031 209.828125 203.917969 209.859375 203.878906 C 209.863281 203.875 209.867188 203.871094 209.871094 203.867188 C 209.878906 203.859375 209.882812 203.855469 209.886719 203.847656 C 212.472656 201.277344 215.617188 199.296875 219.144531 198.0625 C 219.484375 197.941406 219.820312 197.832031 220.164062 197.730469 C 220.414062 198.046875 220.683594 198.351562 220.976562 198.644531 L 221.589844 199.253906 C 223.625 201.289062 226.292969 202.378906 229.0625 202.378906 C 229.992188 202.378906 230.933594 202.257812 231.867188 202.007812 C 235.582031 201.011719 238.394531 198.199219 239.394531 194.480469 Z M 243.605469 178.761719 " fill-opacity="1" fill-rule="nonzero"/><path fill="#fdb716" d="M 239.457031 180.777344 L 236.027344 193.578125 C 235.355469 196.078125 233.464844 197.972656 230.964844 198.640625 C 228.511719 199.300781 225.976562 198.640625 224.15625 196.882812 C 225.199219 196.746094 226.261719 196.679688 227.324219 196.679688 C 228.285156 196.679688 229.066406 195.898438 229.066406 194.9375 C 229.066406 193.976562 228.285156 193.195312 227.324219 193.195312 C 225.464844 193.195312 223.628906 193.371094 221.828125 193.726562 C 221.28125 192.332031 221.183594 190.785156 221.59375 189.265625 C 222.261719 186.769531 224.15625 184.875 226.652344 184.207031 Z M 239.457031 180.777344 " fill-opacity="1" fill-rule="nonzero"/><g clip-path="url(#e4e7533d01)"><path fill="#fdb716" d="M 235.375 104.957031 L 235.375 123.21875 L 232.441406 123.21875 L 232.332031 123.058594 L 223.773438 110.195312 L 223.773438 123.21875 L 220.855469 123.21875 L 220.855469 104.957031 L 223.777344 104.957031 L 223.882812 105.117188 L 232.441406 117.972656 L 232.441406 104.957031 Z M 235.375 104.957031 " fill-opacity="1" fill-rule="nonzero"/></g><g clip-path="url(#78c4716ee8)"><path fill="#fdb716" d="M 233.164062 239.878906 C 234.628906 241.4375 235.375 243.519531 235.375 246.0625 C 235.375 248.597656 234.625 250.667969 233.148438 252.21875 C 231.671875 253.777344 229.761719 254.570312 227.464844 254.570312 C 225.097656 254.570312 223.152344 253.75 221.703125 252.132812 C 220.261719 250.527344 219.53125 248.539062 219.53125 246.234375 C 219.53125 243.558594 220.273438 241.410156 221.738281 239.859375 C 223.207031 238.300781 225.132812 237.511719 227.464844 237.511719 C 229.773438 237.511719 231.6875 238.304688 233.164062 239.878906 Z M 232.484375 246.058594 C 232.484375 244.109375 232.003906 242.597656 231.054688 241.5625 C 230.101562 240.527344 228.933594 240.019531 227.492188 240.019531 C 226 240.019531 224.808594 240.515625 223.851562 241.53125 C 222.902344 242.542969 222.417969 244.140625 222.417969 246.277344 C 222.417969 248.007812 222.890625 249.421875 223.828125 250.484375 C 224.761719 251.542969 225.945312 252.058594 227.445312 252.058594 C 228.957031 252.058594 230.140625 251.546875 231.070312 250.496094 C 232.003906 249.449219 232.476562 247.957031 232.484375 246.058594 Z M 232.484375 246.058594 " fill-opacity="1" fill-rule="nonzero"/></g><g clip-path="url(#782c5807db)"><path fill="#fdb716" d="M 216.066406 107.269531 C 217.6875 109 218.511719 111.300781 218.511719 114.109375 C 218.511719 116.914062 217.683594 119.203125 216.050781 120.917969 C 214.417969 122.640625 212.304688 123.515625 209.773438 123.515625 C 207.148438 123.515625 205.007812 122.609375 203.402344 120.824219 C 201.808594 119.046875 201 116.855469 201 114.300781 C 201 111.339844 201.820312 108.96875 203.4375 107.253906 C 205.0625 105.53125 207.195312 104.65625 209.773438 104.65625 C 212.320312 104.65625 214.4375 105.535156 216.066406 107.269531 Z M 215.386719 114.105469 C 215.386719 111.933594 214.847656 110.242188 213.789062 109.085938 C 212.71875 107.925781 211.414062 107.359375 209.796875 107.359375 C 208.132812 107.359375 206.800781 107.910156 205.726562 109.050781 C 204.664062 110.183594 204.125 111.964844 204.125 114.347656 C 204.125 116.285156 204.652344 117.867188 205.699219 119.046875 C 206.742188 120.234375 208.070312 120.8125 209.75 120.8125 C 211.4375 120.8125 212.765625 120.238281 213.808594 119.066406 C 214.847656 117.894531 215.378906 116.226562 215.386719 114.105469 Z M 215.386719 114.105469 " fill-opacity="1" fill-rule="nonzero"/></g><g clip-path="url(#1c967183d1)"><path fill="#fdb716" d="M 217.539062 237.777344 L 217.539062 254.300781 L 214.832031 254.300781 L 214.832031 242.75 L 210.859375 254.300781 L 208.46875 254.300781 L 204.5 242.511719 L 204.5 254.300781 L 201.796875 254.300781 L 201.796875 237.777344 L 205.539062 237.777344 L 209.363281 249.210938 C 209.53125 249.71875 209.671875 250.148438 209.785156 250.5 C 209.929688 250.0625 210.09375 249.570312 210.28125 249.015625 L 214.136719 237.777344 Z M 217.539062 237.777344 " fill-opacity="1" fill-rule="nonzero"/></g><path fill="#fdb716" d="M 215.152344 164.699219 C 216.445312 166.9375 216.445312 169.617188 215.152344 171.855469 C 213.859375 174.097656 211.542969 175.433594 208.957031 175.433594 L 208.097656 175.433594 C 205.507812 175.433594 203.191406 174.097656 201.898438 171.855469 C 200.605469 169.617188 200.605469 166.9375 201.898438 164.699219 L 208.523438 153.21875 Z M 215.152344 164.699219 " fill-opacity="1" fill-rule="nonzero"/><g clip-path="url(#d772f32b99)"><path fill="#fdb716" d="M 199.425781 245.519531 L 199.425781 251.898438 L 199.292969 252.007812 C 197.246094 253.707031 194.96875 254.570312 192.535156 254.570312 C 190.023438 254.570312 187.96875 253.789062 186.421875 252.25 C 184.875 250.710938 184.089844 248.640625 184.089844 246.105469 C 184.089844 244.5625 184.410156 243.105469 185.035156 241.773438 C 185.667969 240.425781 186.621094 239.363281 187.863281 238.621094 C 189.09375 237.886719 190.617188 237.511719 192.382812 237.511719 C 194.226562 237.511719 195.734375 237.929688 196.867188 238.746094 C 198.007812 239.578125 198.785156 240.824219 199.179688 242.464844 L 199.257812 242.800781 L 196.695312 243.523438 L 196.601562 243.167969 C 196.328125 242.117188 195.84375 241.324219 195.152344 240.804688 C 194.457031 240.285156 193.523438 240.019531 192.382812 240.019531 C 190.574219 240.019531 189.257812 240.550781 188.351562 241.636719 C 187.441406 242.730469 186.980469 244.1875 186.980469 245.976562 C 186.980469 247.320312 187.203125 248.445312 187.644531 249.324219 C 188.082031 250.1875 188.730469 250.84375 189.582031 251.285156 C 190.445312 251.734375 191.402344 251.960938 192.425781 251.960938 C 193.933594 251.960938 195.363281 251.472656 196.675781 250.515625 L 196.675781 248.125 L 192.019531 248.125 L 192.019531 245.519531 Z M 199.425781 245.519531 " fill-opacity="1" fill-rule="nonzero"/></g><g clip-path="url(#910e461c28)"><path fill="#fdb716" d="M 198.605469 104.957031 L 198.605469 123.21875 L 195.675781 123.21875 L 187.011719 110.195312 L 187.011719 123.21875 L 184.089844 123.21875 L 184.089844 104.957031 L 187.011719 104.957031 L 195.675781 117.972656 L 195.675781 104.957031 Z M 198.605469 104.957031 " fill-opacity="1" fill-rule="nonzero"/></g><path fill="#fdb716" d="M 197.871094 188.550781 C 198.242188 189.925781 198.195312 191.328125 197.777344 192.613281 C 196.039062 192.144531 194.25 191.910156 192.433594 191.910156 C 191.46875 191.910156 190.6875 192.6875 190.6875 193.652344 C 190.6875 194.613281 191.46875 195.394531 192.433594 195.394531 C 193.558594 195.394531 194.671875 195.503906 195.761719 195.722656 L 195.410156 196.070312 C 193.578125 197.902344 190.996094 198.59375 188.5 197.921875 C 186 197.253906 184.105469 195.363281 183.4375 192.863281 L 180.007812 180.058594 L 192.8125 183.488281 C 195.308594 184.160156 197.203125 186.050781 197.871094 188.550781 Z M 197.871094 188.550781 " fill-opacity="1" fill-rule="nonzero"/><g clip-path="url(#85bc9be739)"><path fill="#fdb716" d="M 172.023438 118.804688 C 172.554688 119.609375 172.328125 120.691406 171.523438 121.214844 C 167.546875 123.835938 163.804688 126.882812 160.402344 130.289062 C 147.226562 143.460938 139.972656 160.976562 139.972656 179.609375 C 139.972656 198.246094 147.226562 215.761719 160.402344 228.9375 C 163.800781 232.332031 167.542969 235.382812 171.523438 238 C 172.328125 238.53125 172.554688 239.613281 172.023438 240.417969 C 171.6875 240.925781 171.132812 241.203125 170.566406 241.203125 C 170.238281 241.203125 169.90625 241.109375 169.609375 240.914062 C 165.425781 238.164062 161.5 234.964844 157.9375 231.402344 C 144.109375 217.570312 136.488281 199.175781 136.488281 179.609375 C 136.488281 160.046875 144.109375 141.652344 157.9375 127.824219 C 161.507812 124.253906 165.433594 121.046875 169.609375 118.304688 C 170.414062 117.773438 171.496094 117.996094 172.023438 118.804688 Z M 172.023438 118.804688 " fill-opacity="1" fill-rule="nonzero"/></g></svg>