<svg xmlns="http://www.w3.org/2000/svg" xmlns:xlink="http://www.w3.org/1999/xlink" width="500" zoomAndPan="magnify" viewBox="0 0 375 374.999991" height="500" preserveAspectRatio="xMidYMid meet" version="1.0"><defs><clipPath id="f664fecd2e"><path d="M 166 160.015625 L 214.765625 160.015625 L 214.765625 213 L 166 213 Z M 166 160.015625 " clip-rule="nonzero"/></clipPath><clipPath id="42a8ee185b"><path d="M 160.015625 185 L 198 185 L 198 198 L 160.015625 198 Z M 160.015625 185 " clip-rule="nonzero"/></clipPath><clipPath id="226a2ed13f"><path d="M 157.910156 158.0625 L 173 158.0625 L 173 168 L 157.910156 168 Z M 157.910156 158.0625 " clip-rule="nonzero"/></clipPath><clipPath id="e5be851d16"><path d="M 157.910156 161 L 173 161 L 173 171 L 157.910156 171 Z M 157.910156 161 " clip-rule="nonzero"/></clipPath><clipPath id="d12401ea99"><path d="M 158 165 L 177.164062 165 L 177.164062 182 L 158 182 Z M 158 165 " clip-rule="nonzero"/></clipPath><clipPath id="2d8a406e1a"><path d="M 155.433594 156.667969 L 174.257812 156.667969 L 174.257812 171.363281 L 155.433594 171.363281 Z M 155.433594 156.667969 " clip-rule="nonzero"/></clipPath><clipPath id="822152a233"><path d="M 155.484375 166.199219 C 156.140625 164.773438 156.390625 164.550781 156.636719 164.332031 C 156.882812 164.140625 157.105469 163.945312 157.433594 163.78125 C 157.820312 163.535156 158.449219 163.234375 158.890625 163.121094 C 159.246094 163.011719 159.6875 162.929688 159.90625 162.984375 C 160.015625 163.039062 160.042969 163.207031 160.15625 163.207031 C 160.292969 163.234375 160.59375 162.847656 160.785156 162.710938 C 160.925781 162.601562 161.171875 162.546875 161.144531 162.464844 C 161.144531 162.378906 160.648438 162.40625 160.511719 162.214844 C 160.347656 161.96875 160.347656 161.308594 160.457031 160.925781 C 160.539062 160.59375 160.839844 160.347656 161.0625 160.070312 C 161.253906 159.851562 161.390625 159.632812 161.667969 159.441406 C 161.996094 159.191406 162.683594 158.972656 163.011719 158.78125 C 163.207031 158.644531 163.261719 158.558594 163.453125 158.449219 C 163.835938 158.230469 164.632812 157.902344 165.128906 157.707031 C 165.515625 157.542969 165.953125 157.378906 166.171875 157.296875 C 166.253906 157.269531 166.285156 157.269531 166.367188 157.269531 C 166.53125 157.214844 166.886719 157.050781 167.164062 156.964844 C 167.4375 156.855469 167.765625 156.664062 168.042969 156.71875 C 168.398438 156.773438 169.003906 157.1875 169.085938 157.40625 C 169.113281 157.542969 168.894531 157.734375 168.894531 157.820312 C 168.894531 157.847656 168.949219 157.847656 168.949219 157.875 C 168.976562 157.957031 168.867188 158.121094 168.921875 158.257812 C 169.003906 158.449219 169.417969 158.589844 169.5 158.835938 C 169.554688 159.109375 169.332031 159.578125 169.195312 159.878906 C 169.058594 160.128906 168.648438 160.375 168.703125 160.484375 C 168.757812 160.621094 169.5 160.429688 169.773438 160.59375 C 170.046875 160.757812 170.242188 161.417969 170.378906 161.554688 C 170.40625 161.582031 170.433594 161.609375 170.460938 161.609375 C 170.515625 161.636719 170.652344 161.609375 170.734375 161.667969 C 170.957031 161.804688 171.367188 162.351562 171.421875 162.65625 C 171.449219 162.875 171.257812 163.175781 171.3125 163.234375 C 171.339844 163.261719 171.367188 163.207031 171.421875 163.207031 C 171.585938 163.289062 172.191406 163.890625 172.246094 164.195312 C 172.273438 164.386719 172.054688 164.605469 172.054688 164.742188 C 172.082031 164.828125 172.109375 164.882812 172.164062 164.9375 C 172.246094 165.046875 172.550781 165.046875 172.714844 165.183594 C 172.90625 165.375 173.070312 165.871094 173.097656 166.117188 C 173.097656 166.28125 172.933594 166.449219 172.988281 166.53125 C 173.042969 166.613281 173.265625 166.53125 173.402344 166.613281 C 173.621094 166.777344 174.007812 167.382812 174.035156 167.65625 C 174.035156 167.851562 173.8125 167.960938 173.8125 168.152344 C 173.8125 168.453125 174.226562 168.921875 174.226562 169.25 C 174.199219 169.527344 173.976562 169.828125 173.8125 170.019531 C 173.675781 170.160156 173.429688 170.269531 173.375 170.351562 C 173.347656 170.378906 173.375 170.433594 173.375 170.460938 C 173.347656 170.488281 173.207031 170.488281 173.179688 170.488281 C 173.152344 170.515625 173.152344 170.515625 173.152344 170.515625 C 173.042969 170.570312 172.523438 170.789062 172.328125 170.789062 C 172.246094 170.816406 172.136719 170.761719 172.082031 170.761719 C 172.054688 170.761719 172.054688 170.789062 172.027344 170.789062 C 172.027344 170.789062 171.945312 170.816406 171.917969 170.816406 C 171.890625 170.84375 171.808594 170.871094 171.808594 170.871094 C 171.808594 170.871094 171.78125 170.871094 171.753906 170.871094 C 171.753906 170.871094 171.726562 170.871094 171.726562 170.871094 C 171.726562 170.871094 171.699219 170.871094 171.667969 170.871094 C 171.640625 170.871094 171.558594 170.871094 171.558594 170.871094 C 171.558594 170.871094 171.503906 170.871094 171.449219 170.84375 C 171.449219 170.84375 171.421875 170.84375 171.421875 170.84375 C 171.394531 170.84375 171.394531 170.84375 171.394531 170.84375 C 171.367188 170.84375 171.339844 170.84375 171.339844 170.84375 C 171.339844 170.84375 171.257812 170.789062 171.230469 170.789062 C 171.203125 170.761719 171.121094 170.734375 171.121094 170.734375 C 171.121094 170.734375 171.121094 170.734375 171.121094 170.707031 C 171.09375 170.707031 171.066406 170.679688 171.039062 170.652344 C 171.011719 170.625 170.957031 170.597656 170.957031 170.597656 C 170.957031 170.597656 170.929688 170.570312 170.898438 170.542969 C 170.898438 170.542969 170.898438 170.542969 170.871094 170.515625 C 170.871094 170.515625 170.871094 170.488281 170.84375 170.488281 C 170.84375 170.460938 170.789062 170.40625 170.789062 170.40625 C 170.789062 170.40625 170.761719 170.324219 170.761719 170.296875 C 170.734375 170.269531 170.734375 170.269531 170.734375 170.242188 C 170.707031 170.242188 170.734375 170.242188 170.707031 170.214844 C 170.707031 170.214844 170.707031 170.1875 170.707031 170.1875 C 170.707031 170.1875 170.707031 170.128906 170.707031 170.128906 C 170.707031 170.128906 170.679688 170.160156 170.679688 170.160156 C 170.679688 170.160156 170.679688 170.101562 170.679688 170.101562 C 170.679688 170.101562 170.679688 170.074219 170.679688 170.074219 C 170.679688 170.046875 170.679688 170.019531 170.679688 169.992188 C 170.652344 169.964844 170.625 169.9375 170.625 169.9375 C 170.625 169.910156 170.625 169.910156 170.625 169.882812 C 170.625 169.855469 170.542969 169.828125 170.542969 169.773438 C 170.515625 169.71875 170.625 169.609375 170.597656 169.527344 C 170.542969 169.417969 170.160156 169.277344 170.128906 169.140625 C 170.101562 169.058594 170.1875 168.921875 170.160156 168.894531 C 170.160156 168.894531 170.101562 168.949219 170.046875 168.949219 C 169.882812 168.921875 169.167969 168.757812 169.003906 168.5625 C 168.894531 168.425781 169.003906 168.179688 168.894531 168.097656 C 168.8125 168.015625 168.5625 168.152344 168.425781 168.070312 C 168.179688 167.933594 167.792969 167.109375 167.792969 167.082031 C 167.792969 167.050781 167.191406 166.804688 167.109375 166.640625 C 167.054688 166.503906 167.246094 166.28125 167.191406 166.171875 C 167.136719 166.0625 166.96875 166.0625 166.941406 165.953125 C 166.886719 165.789062 167.191406 165.375 167.082031 165.238281 C 166.96875 165.074219 166.3125 165.347656 166.035156 165.238281 C 165.816406 165.128906 165.734375 164.714844 165.515625 164.660156 C 165.210938 164.605469 164.714844 165.15625 164.332031 165.320312 C 164.03125 165.429688 163.617188 165.375 163.480469 165.597656 C 163.289062 165.816406 163.507812 166.28125 163.425781 166.613281 C 163.34375 166.941406 163.148438 167.273438 162.957031 167.546875 C 162.765625 167.792969 162.519531 168.097656 162.269531 168.179688 C 162.050781 168.289062 161.667969 168.152344 161.527344 168.207031 C 161.445312 168.234375 161.445312 168.261719 161.363281 168.34375 C 161.226562 168.453125 160.839844 168.8125 160.675781 168.949219 C 160.59375 169.003906 160.566406 169.03125 160.511719 169.085938 C 160.429688 169.195312 160.320312 169.359375 160.183594 169.527344 C 160.015625 169.746094 159.769531 170.074219 159.578125 170.296875 C 159.386719 170.542969 159.109375 170.84375 159 170.957031 C 158.972656 170.984375 158.945312 171.011719 158.917969 171.039062 C 158.890625 171.066406 158.835938 171.09375 158.835938 171.121094 C 158.835938 171.121094 158.78125 171.148438 158.753906 171.175781 C 158.726562 171.175781 158.671875 171.230469 158.671875 171.230469 C 158.644531 171.230469 158.589844 171.230469 158.558594 171.257812 C 158.503906 171.257812 158.449219 171.285156 158.449219 171.285156 C 158.449219 171.285156 158.367188 171.285156 158.339844 171.285156 C 158.3125 171.285156 158.230469 171.3125 158.230469 171.3125 C 158.230469 171.3125 158.148438 171.285156 158.121094 171.285156 C 158.09375 171.285156 158.011719 171.257812 158.011719 171.257812 C 158.011719 171.257812 157.957031 171.230469 157.929688 171.230469 C 157.875 171.203125 157.820312 171.175781 157.820312 171.175781 C 157.820312 171.175781 157.761719 171.121094 157.734375 171.121094 C 157.707031 171.09375 157.652344 171.039062 157.652344 171.039062 C 157.652344 171.039062 157.597656 170.984375 157.570312 170.957031 C 157.542969 170.929688 157.515625 170.871094 157.515625 170.871094 C 157.515625 170.871094 157.488281 170.816406 157.460938 170.761719 C 157.433594 170.734375 157.40625 170.679688 157.40625 170.679688 C 157.40625 170.679688 157.40625 170.597656 157.40625 170.570312 C 157.378906 170.542969 157.378906 170.460938 157.378906 170.460938 C 157.378906 170.460938 157.378906 170.378906 157.378906 170.351562 C 157.378906 170.324219 157.378906 170.242188 157.378906 170.242188 C 157.378906 170.242188 157.40625 170.160156 157.40625 170.128906 C 157.433594 170.101562 157.460938 170.019531 157.460938 170.019531 C 157.460938 170.019531 157.488281 169.964844 157.515625 169.9375 C 157.515625 169.910156 157.542969 169.882812 157.542969 169.882812 C 157.542969 169.855469 157.515625 169.855469 157.515625 169.855469 C 157.488281 169.828125 157.433594 169.746094 157.378906 169.691406 C 157.351562 169.636719 157.324219 169.582031 157.296875 169.527344 C 157.269531 169.445312 157.269531 169.390625 157.269531 169.304688 C 157.269531 169.25 157.269531 169.167969 157.269531 169.113281 C 157.296875 169.058594 157.296875 168.976562 157.324219 168.921875 C 157.351562 168.867188 157.433594 168.757812 157.433594 168.757812 C 157.433594 168.757812 157.707031 168.398438 157.847656 168.207031 C 157.984375 168.042969 158.394531 167.792969 158.339844 167.683594 C 158.285156 167.519531 157.351562 167.65625 157.214844 167.492188 C 157.132812 167.355469 157.296875 166.996094 157.269531 166.96875 C 157.242188 166.941406 157.242188 166.96875 157.214844 166.96875 C 157.078125 166.996094 156.28125 167.21875 155.976562 167.050781 C 155.730469 166.914062 155.484375 166.199219 155.484375 166.199219 M 158.835938 167.628906 C 159.21875 167.65625 159.300781 167.492188 159.386719 167.4375 C 159.414062 167.410156 159.441406 167.382812 159.46875 167.355469 C 159.496094 167.355469 159.523438 167.300781 159.550781 167.300781 C 159.550781 167.300781 159.605469 167.273438 159.632812 167.246094 C 159.660156 167.246094 159.742188 167.191406 159.742188 167.191406 C 159.742188 167.191406 159.796875 167.191406 159.824219 167.164062 C 159.878906 167.164062 159.933594 167.136719 159.933594 167.136719 C 159.933594 167.136719 159.960938 167.164062 159.960938 167.136719 C 159.960938 167.136719 159.988281 167.082031 159.988281 167.082031 C 159.988281 167.082031 160.015625 166.996094 160.015625 166.96875 C 160.042969 166.941406 160.070312 166.914062 160.070312 166.886719 C 160.128906 166.75 160.238281 166.253906 160.183594 166.226562 C 160.097656 166.199219 159.796875 166.695312 159.578125 166.941406 C 159.359375 167.164062 158.835938 167.628906 158.835938 167.628906 M 160.375 165.898438 C 160.511719 165.734375 160.457031 165.734375 160.429688 165.761719 C 160.402344 165.789062 160.375 165.898438 160.375 165.898438 " clip-rule="nonzero"/></clipPath><clipPath id="c60e273edf"><path d="M 144.710938 144.710938 L 230.210938 144.710938 L 230.210938 230.210938 L 144.710938 230.210938 Z M 144.710938 144.710938 " clip-rule="nonzero"/></clipPath></defs><path fill="#fdb716" d="M 184.277344 207.253906 C 187.765625 207.21875 191.167969 206.675781 194.492188 205.621094 C 194.746094 205.542969 194.9375 205.382812 195.0625 205.148438 C 195.1875 204.914062 195.210938 204.667969 195.132812 204.414062 C 195.054688 204.15625 194.898438 203.96875 194.664062 203.84375 C 194.425781 203.71875 194.179688 203.695312 193.925781 203.773438 C 187.226562 205.824219 181.113281 205.835938 175.765625 203.8125 C 175.515625 203.71875 175.269531 203.726562 175.027344 203.835938 C 174.785156 203.945312 174.617188 204.125 174.523438 204.375 C 174.429688 204.625 174.433594 204.867188 174.542969 205.113281 C 174.652344 205.355469 174.832031 205.523438 175.082031 205.617188 C 178.046875 206.726562 181.113281 207.273438 184.277344 207.253906 Z M 184.277344 207.253906 " fill-opacity="1" fill-rule="nonzero"/><g clip-path="url(#f664fecd2e)"><path fill="#fdb716" d="M 213.054688 203.121094 C 213.5 202.511719 213.84375 201.847656 214.089844 201.128906 C 214.335938 200.414062 214.46875 199.675781 214.488281 198.917969 C 214.511719 198.160156 214.421875 197.417969 214.21875 196.6875 C 214.011719 195.960938 213.707031 195.277344 213.296875 194.640625 C 213 194.148438 212.765625 193.625 212.589844 193.078125 C 208.886719 182.695312 203.695312 173.121094 197.015625 164.351562 C 196.117188 163.15625 194.949219 162.347656 193.507812 161.933594 C 189.816406 160.886719 186.050781 160.308594 182.210938 160.207031 C 181.777344 160.195312 181.351562 160.25 180.933594 160.382812 C 180.519531 160.511719 180.136719 160.703125 179.785156 160.964844 C 179.4375 161.222656 179.140625 161.53125 178.894531 161.890625 C 178.648438 162.25 178.46875 162.640625 178.355469 163.0625 C 177.742188 165.308594 177.308594 167.585938 177.050781 169.902344 C 177.023438 170.210938 177.03125 170.519531 177.078125 170.828125 C 177.125 171.136719 177.207031 171.433594 177.324219 171.722656 C 177.441406 172.011719 177.59375 172.28125 177.773438 172.53125 C 177.957031 172.785156 178.167969 173.011719 178.40625 173.214844 C 178.640625 173.414062 178.898438 173.585938 179.179688 173.726562 C 179.457031 173.867188 179.746094 173.96875 180.050781 174.039062 C 180.355469 174.109375 180.660156 174.144531 180.972656 174.136719 C 181.285156 174.132812 181.589844 174.09375 181.890625 174.015625 L 188.457031 172.261719 L 191.6875 185.1875 C 191.757812 185.441406 191.90625 185.636719 192.132812 185.769531 C 192.359375 185.902344 192.597656 185.9375 192.855469 185.871094 C 193.109375 185.808594 193.304688 185.664062 193.445312 185.441406 C 193.582031 185.214844 193.621094 184.976562 193.5625 184.71875 L 190.09375 170.839844 C 190.027344 170.578125 189.878906 170.378906 189.648438 170.242188 C 189.414062 170.105469 189.167969 170.074219 188.90625 170.140625 L 181.394531 172.148438 C 181.085938 172.234375 180.773438 172.242188 180.460938 172.167969 C 180.152344 172.097656 179.875 171.957031 179.632812 171.746094 C 178.257812 170.449219 179.398438 168.246094 179.5 166.648438 C 179.96875 165.03125 179.84375 162.109375 182.164062 162.140625 C 185.839844 162.238281 189.445312 162.789062 192.984375 163.792969 C 194.007812 164.09375 194.839844 164.667969 195.480469 165.527344 C 202.039062 174.132812 207.132812 183.53125 210.769531 193.722656 C 210.992188 194.410156 211.292969 195.0625 211.667969 195.679688 C 211.972656 196.148438 212.203125 196.65625 212.355469 197.195312 C 212.507812 197.734375 212.574219 198.285156 212.5625 198.84375 C 212.546875 199.40625 212.449219 199.949219 212.269531 200.480469 C 212.09375 201.011719 211.839844 201.503906 211.507812 201.960938 C 209.34375 204.847656 205.410156 203.695312 202.324219 205.625 C 194.671875 209.714844 179.019531 213.371094 167.890625 205.082031 C 167.671875 204.933594 167.429688 204.886719 167.171875 204.933594 C 166.914062 204.984375 166.707031 205.117188 166.558594 205.332031 C 166.40625 205.550781 166.355469 205.789062 166.398438 206.046875 C 166.445312 206.308594 166.574219 206.515625 166.789062 206.667969 C 177.929688 214.8125 193.179688 212.503906 203.175781 207.359375 C 206.535156 205.503906 210.714844 206.53125 213.054688 203.121094 Z M 213.054688 203.121094 " fill-opacity="1" fill-rule="nonzero"/></g><g clip-path="url(#42a8ee185b)"><path fill="#fdb716" d="M 168.164062 186.507812 C 166.929688 185.980469 160.035156 184.933594 160.421875 187.199219 C 160.46875 187.460938 160.605469 187.667969 160.824219 187.820312 C 161.042969 187.96875 161.285156 188.019531 161.546875 187.96875 C 165.433594 186.957031 170.78125 189.132812 172.785156 191.804688 C 172.878906 191.90625 172.984375 191.984375 173.109375 192.042969 C 173.234375 192.097656 173.367188 192.125 173.503906 192.128906 C 173.640625 192.128906 173.769531 192.101562 173.894531 192.046875 C 174.019531 191.992188 174.128906 191.914062 174.222656 191.816406 C 180.421875 184.636719 191.085938 187.648438 195.871094 196.753906 C 196 196.980469 196.191406 197.132812 196.445312 197.203125 C 196.699219 197.277344 196.941406 197.25 197.171875 197.125 C 197.402344 197 197.558594 196.808594 197.632812 196.558594 C 197.710938 196.308594 197.691406 196.066406 197.570312 195.832031 C 193.773438 188.839844 186.933594 184.902344 180.554688 186.039062 C 177.832031 186.570312 175.484375 187.8125 173.519531 189.769531 C 171.984375 188.269531 170.199219 187.179688 168.164062 186.507812 Z M 168.164062 186.507812 " fill-opacity="1" fill-rule="nonzero"/></g><g clip-path="url(#226a2ed13f)"><path fill="#fdb716" d="M 158.492188 167.121094 C 158.636719 167.121094 158.777344 167.066406 158.878906 166.953125 C 160.050781 165.667969 161.238281 164.277344 162.382812 162.933594 C 163.328125 161.824219 164.300781 160.6875 165.265625 159.605469 C 165.378906 159.476562 165.578125 159.476562 165.695312 159.605469 C 166.65625 160.6875 167.628906 161.824219 168.574219 162.933594 C 169.722656 164.277344 170.910156 165.667969 172.078125 166.953125 C 172.273438 167.164062 172.605469 167.179688 172.816406 166.988281 C 173.03125 166.792969 173.046875 166.460938 172.851562 166.246094 C 171.695312 164.976562 170.511719 163.59375 169.371094 162.253906 C 168.222656 160.910156 167.035156 159.519531 165.867188 158.234375 C 165.765625 158.125 165.625 158.0625 165.480469 158.0625 C 165.332031 158.0625 165.191406 158.125 165.09375 158.234375 C 163.921875 159.519531 162.734375 160.910156 161.589844 162.253906 C 160.449219 163.589844 159.273438 164.96875 158.117188 166.238281 C 157.925781 166.449219 157.925781 166.777344 158.128906 166.976562 C 158.230469 167.074219 158.363281 167.121094 158.492188 167.121094 Z M 158.492188 167.121094 " fill-opacity="1" fill-rule="nonzero"/></g><g clip-path="url(#e5be851d16)"><path fill="#fdb716" d="M 158.492188 170.582031 C 158.636719 170.582031 158.777344 170.523438 158.878906 170.410156 C 160.050781 169.125 161.238281 167.734375 162.382812 166.390625 C 163.328125 165.285156 164.300781 164.144531 165.265625 163.066406 C 165.378906 162.9375 165.578125 162.9375 165.695312 163.066406 C 166.65625 164.144531 167.628906 165.285156 168.574219 166.390625 C 169.722656 167.734375 170.910156 169.125 172.078125 170.410156 C 172.273438 170.625 172.605469 170.640625 172.816406 170.445312 C 173.03125 170.25 173.046875 169.921875 172.851562 169.707031 C 171.695312 168.433594 170.511719 167.050781 169.371094 165.710938 C 168.222656 164.367188 167.035156 162.976562 165.867188 161.695312 C 165.765625 161.585938 165.625 161.523438 165.480469 161.523438 C 165.332031 161.523438 165.191406 161.585938 165.09375 161.695312 C 163.921875 162.976562 162.734375 164.367188 161.589844 165.710938 C 160.445312 167.050781 159.265625 168.433594 158.105469 169.707031 C 157.914062 169.921875 157.925781 170.25 158.140625 170.445312 C 158.242188 170.535156 158.367188 170.582031 158.492188 170.582031 Z M 158.492188 170.582031 " fill-opacity="1" fill-rule="nonzero"/></g><g clip-path="url(#d12401ea99)"><path fill="#fdb716" d="M 170.566406 181.757812 C 171.578125 181.757812 172.730469 181.636719 173.886719 181.308594 C 176.109375 180.679688 177.003906 179.367188 177.042969 179.3125 C 177.15625 179.140625 177.160156 178.921875 177.050781 178.746094 C 176.941406 178.570312 176.742188 178.476562 176.539062 178.503906 L 176.40625 178.519531 C 174.941406 178.710938 172.9375 178.96875 171.613281 178.382812 C 169.980469 177.664062 169.019531 176.726562 168.757812 175.59375 C 168.648438 175.117188 168.566406 174.4375 168.542969 173.851562 L 172.074219 173.851562 C 172.28125 173.851562 172.46875 173.730469 172.550781 173.542969 C 172.632812 173.351562 172.597656 173.132812 172.460938 172.976562 L 165.867188 165.738281 C 165.765625 165.628906 165.625 165.570312 165.480469 165.570312 C 165.332031 165.570312 165.191406 165.628906 165.09375 165.738281 L 158.5 172.976562 C 158.359375 173.132812 158.324219 173.351562 158.40625 173.542969 C 158.492188 173.730469 158.679688 173.851562 158.886719 173.851562 L 162.710938 173.855469 C 162.785156 174.195312 162.886719 174.707031 162.964844 175.085938 C 163.085938 175.683594 163.15625 176.023438 163.183594 176.136719 C 163.527344 177.421875 164.15625 178.59375 165 179.523438 C 165.917969 180.539062 167.070312 181.230469 168.332031 181.53125 C 168.898438 181.664062 169.675781 181.757812 170.566406 181.757812 Z M 174.960938 179.734375 C 174.601562 179.945312 174.152344 180.148438 173.601562 180.304688 C 171.617188 180.867188 169.652344 180.769531 168.574219 180.511719 C 166.507812 180.023438 164.828125 178.242188 164.195312 175.867188 C 164.171875 175.78125 164.074219 175.300781 163.988281 174.878906 C 163.914062 174.507812 163.828125 174.085938 163.761719 173.765625 C 163.722656 173.589844 163.695312 173.457031 163.671875 173.363281 C 163.660156 173.304688 163.648438 173.261719 163.636719 173.226562 C 163.523438 172.832031 163.1875 172.8125 163.121094 172.8125 L 160.070312 172.808594 L 165.265625 167.101562 C 165.378906 166.976562 165.578125 166.976562 165.691406 167.101562 L 170.886719 172.808594 L 168.015625 172.808594 C 167.730469 172.808594 167.5 173.03125 167.492188 173.316406 C 167.472656 174.058594 167.574219 175.117188 167.738281 175.828125 C 168.078125 177.300781 169.238281 178.480469 171.1875 179.34375 C 172.296875 179.832031 173.6875 179.84375 174.960938 179.734375 Z M 174.960938 179.734375 " fill-opacity="1" fill-rule="nonzero"/></g><g clip-path="url(#2d8a406e1a)"><g clip-path="url(#822152a233)"><path fill="#ffffff" d="M 154.382812 155.621094 L 175.308594 155.621094 L 175.308594 172.410156 L 154.382812 172.410156 Z M 154.382812 155.621094 " fill-opacity="1" fill-rule="nonzero"/></g></g><g clip-path="url(#c60e273edf)"><path fill="#fdb716" d="M 187.496094 144.710938 C 163.890625 144.710938 144.710938 163.890625 144.710938 187.496094 C 144.710938 211.105469 163.890625 230.28125 187.496094 230.28125 C 211.105469 230.28125 230.28125 211.105469 230.28125 187.496094 C 230.28125 163.890625 211.105469 144.710938 187.496094 144.710938 Z M 187.496094 146.574219 C 210.125 146.574219 228.421875 164.871094 228.421875 187.496094 C 228.421875 210.125 210.125 228.421875 187.496094 228.421875 C 164.871094 228.421875 146.574219 210.125 146.574219 187.496094 C 146.574219 164.871094 164.871094 146.574219 187.496094 146.574219 Z M 187.496094 146.574219 " fill-opacity="1" fill-rule="nonzero"/></g></svg>