<svg xmlns="http://www.w3.org/2000/svg" xmlns:xlink="http://www.w3.org/1999/xlink" width="500" zoomAndPan="magnify" viewBox="0 0 375 374.999991" height="500" preserveAspectRatio="xMidYMid meet" version="1.0"><defs><clipPath id="2b5511d0fe"><path d="M 208.621094 173.542969 L 216.015625 173.542969 L 216.015625 182.976562 L 208.621094 182.976562 Z M 208.621094 173.542969 " clip-rule="nonzero"/></clipPath><clipPath id="22698274a8"><path d="M 207 161.074219 L 212 161.074219 L 212 175 L 207 175 Z M 207 161.074219 " clip-rule="nonzero"/></clipPath><clipPath id="a808fb79f4"><path d="M 182.425781 171.679688 L 209.902344 171.679688 L 209.902344 216.574219 L 182.425781 216.574219 Z M 182.425781 171.679688 " clip-rule="nonzero"/></clipPath><clipPath id="3b63f6c13a"><path d="M 158.980469 173.542969 L 166.375 173.542969 L 166.375 182.976562 L 158.980469 182.976562 Z M 158.980469 173.542969 " clip-rule="nonzero"/></clipPath><clipPath id="24bbfb236e"><path d="M 163 161.074219 L 168 161.074219 L 168 175 L 163 175 Z M 163 161.074219 " clip-rule="nonzero"/></clipPath><clipPath id="19bd5afada"><path d="M 165.09375 171.679688 L 192.570312 171.679688 L 192.570312 216.574219 L 165.09375 216.574219 Z M 165.09375 171.679688 " clip-rule="nonzero"/></clipPath><clipPath id="f434fb7c4e"><path d="M 144.578125 144.578125 L 230.078125 144.578125 L 230.078125 230.078125 L 144.578125 230.078125 Z M 144.578125 144.578125 " clip-rule="nonzero"/></clipPath></defs><g clip-path="url(#2b5511d0fe)"><path fill="#fdb716" d="M 216.015625 173.617188 C 216.007812 173.632812 216 174.890625 215.734375 176.453125 C 215.601562 177.234375 215.40625 178.085938 215.128906 178.894531 C 214.851562 179.699219 214.496094 180.457031 214.0625 181.042969 C 214.0625 181.042969 213.863281 181.296875 213.753906 181.414062 C 213.386719 181.8125 212.796875 182.101562 212.144531 182.308594 C 211.492188 182.515625 210.78125 182.640625 210.164062 182.726562 C 209.320312 182.839844 208.683594 182.863281 208.683594 182.863281 C 208.683594 182.859375 208.964844 181.804688 209.328125 180.5 C 209.542969 179.730469 209.789062 178.875 210.046875 178.101562 C 210.300781 177.324219 210.574219 176.632812 210.871094 176.195312 C 211.652344 175.011719 212.742188 174.324219 213.730469 173.949219 C 214.714844 173.578125 215.59375 173.527344 215.902344 173.613281 C 215.984375 173.617188 216.015625 173.617188 216.015625 173.617188 " fill-opacity="1" fill-rule="nonzero"/></g><path fill="#fdb716" d="M 214.875 184.367188 C 214.863281 184.375 214.652344 185.632812 214.09375 187.183594 C 213.816406 187.960938 213.453125 188.808594 213.003906 189.601562 C 212.554688 190.394531 212.023438 191.136719 211.425781 191.703125 C 211.425781 191.703125 211.152344 191.945312 211.007812 192.054688 C 210.511719 192.4375 209.78125 192.683594 209 192.816406 C 208.21875 192.953125 207.386719 192.980469 206.683594 192.949219 C 205.722656 192.90625 205.019531 192.773438 205.019531 192.777344 C 205.019531 192.773438 205.507812 191.785156 206.132812 190.5625 C 206.503906 189.84375 206.917969 189.046875 207.339844 188.328125 C 207.761719 187.613281 208.183594 186.976562 208.589844 186.597656 C 209.125 186.097656 209.730469 185.707031 210.347656 185.398438 C 210.96875 185.09375 211.605469 184.871094 212.199219 184.714844 C 213.382812 184.394531 214.398438 184.335938 214.746094 184.367188 C 214.839844 184.371094 214.875 184.367188 214.875 184.367188 " fill-opacity="1" fill-rule="nonzero"/><path fill="#fdb716" d="M 211.941406 194.914062 C 211.929688 194.914062 211.507812 196.140625 210.652344 197.632812 C 210.222656 198.378906 209.6875 199.183594 209.058594 199.933594 C 208.429688 200.683594 207.710938 201.371094 206.929688 201.882812 C 206.929688 201.882812 206.582031 202.09375 206.394531 202.191406 C 205.761719 202.527344 204.871094 202.6875 203.949219 202.710938 C 203.023438 202.738281 202.070312 202.625 201.292969 202.445312 C 200.222656 202.210938 199.480469 201.898438 199.480469 201.898438 C 199.480469 201.898438 200.148438 201.007812 201.011719 199.921875 C 201.523438 199.28125 202.097656 198.574219 202.667969 197.953125 C 203.242188 197.328125 203.808594 196.785156 204.316406 196.492188 C 204.980469 196.117188 205.71875 195.839844 206.472656 195.628906 C 207.226562 195.417969 207.992188 195.273438 208.707031 195.171875 C 210.136719 194.964844 211.351562 194.929688 211.785156 194.917969 C 211.894531 194.917969 211.941406 194.914062 211.941406 194.914062 " fill-opacity="1" fill-rule="nonzero"/><path fill="#fdb716" d="M 207.289062 204.957031 C 207.277344 204.949219 206.660156 206.109375 205.519531 207.484375 C 204.953125 208.171875 204.253906 208.914062 203.449219 209.582031 C 202.648438 210.25 201.746094 210.851562 200.785156 211.269531 C 200.785156 211.269531 200.355469 211.4375 200.128906 211.507812 C 199.355469 211.769531 198.300781 211.808594 197.238281 211.6875 C 196.171875 211.5625 195.097656 211.28125 194.261719 210.929688 C 193.097656 210.46875 192.347656 209.957031 192.34375 209.960938 C 192.34375 209.960938 193.160156 209.1875 194.214844 208.269531 C 194.839844 207.726562 195.546875 207.136719 196.242188 206.628906 C 196.941406 206.121094 197.628906 205.699219 198.222656 205.511719 C 198.988281 205.296875 199.847656 205.167969 200.730469 205.085938 C 201.613281 205.007812 202.519531 204.976562 203.367188 204.964844 C 205.0625 204.941406 206.535156 204.992188 207.09375 204.957031 C 207.230469 204.957031 207.289062 204.957031 207.289062 204.957031 " fill-opacity="1" fill-rule="nonzero"/><path fill="#fdb716" d="M 202.824219 172.601562 C 202.828125 172.617188 202.683594 173.574219 202.597656 174.800781 C 202.554688 175.414062 202.527344 176.09375 202.554688 176.769531 C 202.578125 177.445312 202.660156 178.109375 202.847656 178.695312 C 202.847656 178.691406 202.941406 178.949219 202.996094 179.078125 C 203.183594 179.507812 203.605469 179.949219 204.101562 180.378906 C 204.601562 180.808594 205.179688 181.222656 205.683594 181.578125 C 206.375 182.054688 206.914062 182.390625 206.914062 182.390625 C 206.914062 182.390625 207.199219 181.371094 207.402344 180.078125 C 207.519531 179.320312 207.609375 178.464844 207.613281 177.6875 C 207.621094 176.90625 207.550781 176.199219 207.375 175.730469 C 207.144531 175.097656 206.789062 174.582031 206.375 174.164062 C 205.960938 173.75 205.492188 173.433594 205.035156 173.203125 C 204.121094 172.738281 203.253906 172.59375 202.9375 172.613281 C 202.859375 172.605469 202.824219 172.601562 202.824219 172.601562 " fill-opacity="1" fill-rule="nonzero"/><path fill="#fdb716" d="M 200.785156 180.648438 C 200.789062 180.660156 200.453125 181.5625 200.136719 182.765625 C 199.976562 183.371094 199.824219 184.050781 199.726562 184.75 C 199.628906 185.445312 199.589844 186.160156 199.675781 186.835938 C 199.675781 186.835938 199.722656 187.136719 199.753906 187.289062 C 199.867188 187.804688 200.222656 188.414062 200.664062 189.03125 C 201.105469 189.644531 201.632812 190.257812 202.109375 190.761719 C 202.761719 191.457031 203.292969 191.929688 203.292969 191.929688 C 203.292969 191.929688 203.777344 190.976562 204.222656 189.730469 C 204.484375 189 204.730469 188.167969 204.878906 187.390625 C 205.027344 186.613281 205.082031 185.890625 204.976562 185.375 C 204.84375 184.691406 204.558594 184.070312 204.199219 183.523438 C 203.839844 182.972656 203.40625 182.5 202.972656 182.105469 C 202.097656 181.316406 201.21875 180.839844 200.898438 180.707031 C 200.816406 180.667969 200.785156 180.648438 200.785156 180.648438 " fill-opacity="1" fill-rule="nonzero"/><path fill="#fdb716" d="M 197.21875 188.023438 C 197.222656 188.035156 196.714844 188.839844 196.179688 189.988281 C 195.910156 190.5625 195.632812 191.222656 195.40625 191.929688 C 195.183594 192.632812 195.011719 193.382812 194.96875 194.144531 C 194.96875 194.144531 194.964844 194.480469 194.96875 194.65625 C 194.984375 195.257812 195.234375 196.035156 195.574219 196.839844 C 195.917969 197.640625 196.355469 198.464844 196.777344 199.128906 C 197.347656 200.050781 197.851562 200.675781 197.851562 200.675781 C 197.847656 200.675781 198.511719 199.820312 199.183594 198.664062 C 199.578125 197.984375 199.976562 197.203125 200.261719 196.453125 C 200.546875 195.699219 200.722656 194.976562 200.703125 194.417969 C 200.664062 193.699219 200.476562 192.972656 200.199219 192.289062 C 199.921875 191.605469 199.558594 190.960938 199.179688 190.394531 C 198.421875 189.257812 197.609375 188.429688 197.324219 188.132812 C 197.246094 188.058594 197.21875 188.023438 197.21875 188.023438 " fill-opacity="1" fill-rule="nonzero"/><path fill="#fdb716" d="M 192.316406 194.480469 C 192.320312 194.492188 191.671875 195.179688 190.925781 196.246094 C 190.554688 196.78125 190.160156 197.414062 189.804688 198.117188 C 189.453125 198.820312 189.148438 199.597656 188.960938 200.429688 C 188.960938 200.429688 188.890625 200.804688 188.863281 201 C 188.769531 201.679688 188.875 202.621094 189.082031 203.609375 C 189.289062 204.59375 189.597656 205.625 189.941406 206.453125 C 190.394531 207.601562 190.851562 208.382812 190.851562 208.382812 C 190.851562 208.382812 191.65625 207.644531 192.519531 206.601562 C 193.027344 205.992188 193.554688 205.277344 193.964844 204.5625 C 194.375 203.851562 194.664062 203.140625 194.726562 202.550781 C 194.785156 201.796875 194.703125 200.972656 194.535156 200.15625 C 194.367188 199.335938 194.113281 198.523438 193.832031 197.78125 C 193.273438 196.296875 192.609375 195.101562 192.398438 194.640625 C 192.339844 194.53125 192.316406 194.480469 192.316406 194.480469 " fill-opacity="1" fill-rule="nonzero"/><g clip-path="url(#22698274a8)"><path fill="#fdb716" d="M 211.53125 167.21875 C 211.382812 166.417969 211.144531 165.617188 210.871094 164.878906 C 210.59375 164.140625 210.277344 163.460938 209.976562 162.894531 C 209.671875 162.328125 209.386719 161.867188 209.171875 161.554688 C 208.960938 161.242188 208.824219 161.078125 208.828125 161.085938 C 208.828125 161.078125 208.78125 161.285156 208.699219 161.644531 L 208.355469 163.121094 C 208.21875 163.722656 208.0625 164.414062 207.917969 165.140625 C 207.769531 165.863281 207.632812 166.625 207.539062 167.371094 C 207.480469 167.875 207.445312 168.367188 207.449219 168.832031 C 207.449219 169.324219 207.574219 169.921875 207.753906 170.550781 C 207.929688 171.179688 208.164062 171.839844 208.386719 172.453125 C 208.839844 173.671875 209.261719 174.6875 209.273438 174.710938 C 209.285156 174.691406 209.929688 173.792969 210.539062 172.589844 C 210.84375 171.992188 211.140625 171.316406 211.351562 170.652344 C 211.566406 169.988281 211.699219 169.335938 211.691406 168.800781 C 211.691406 168.292969 211.632812 167.757812 211.53125 167.21875 " fill-opacity="1" fill-rule="nonzero"/></g><g clip-path="url(#a808fb79f4)"><path fill="#fdb716" d="M 183.273438 216.804688 C 182.972656 216.40625 182.6875 215.996094 182.425781 215.570312 C 186.1875 213.019531 189.710938 210.160156 192.886719 206.980469 C 196.058594 203.800781 198.875 200.300781 201.214844 196.53125 C 203.558594 192.761719 205.421875 188.726562 206.746094 184.539062 C 208.066406 180.355469 208.851562 176.027344 209.085938 171.695312 C 209.355469 171.703125 209.625 171.714844 209.890625 171.734375 C 209.6875 176.136719 208.929688 180.542969 207.625 184.8125 C 206.324219 189.085938 204.476562 193.222656 202.136719 197.09375 C 199.796875 200.96875 196.976562 204.578125 193.789062 207.867188 C 190.605469 211.160156 187.058594 214.136719 183.273438 216.804688 " fill-opacity="1" fill-rule="nonzero"/></g><g clip-path="url(#3b63f6c13a)"><path fill="#fdb716" d="M 158.980469 173.617188 C 158.988281 173.632812 158.996094 174.890625 159.261719 176.453125 C 159.394531 177.234375 159.589844 178.085938 159.867188 178.894531 C 160.144531 179.699219 160.5 180.457031 160.933594 181.042969 C 160.933594 181.042969 161.132812 181.296875 161.242188 181.414062 C 161.609375 181.8125 162.199219 182.101562 162.851562 182.308594 C 163.503906 182.515625 164.214844 182.640625 164.832031 182.726562 C 165.675781 182.839844 166.3125 182.863281 166.3125 182.863281 C 166.3125 182.859375 166.03125 181.804688 165.664062 180.5 C 165.449219 179.730469 165.207031 178.875 164.949219 178.101562 C 164.691406 177.324219 164.421875 176.632812 164.125 176.195312 C 163.34375 175.011719 162.253906 174.324219 161.265625 173.949219 C 160.277344 173.578125 159.398438 173.527344 159.09375 173.613281 C 159.011719 173.617188 158.980469 173.617188 158.980469 173.617188 " fill-opacity="1" fill-rule="nonzero"/></g><path fill="#fdb716" d="M 160.117188 184.367188 C 160.128906 184.375 160.34375 185.632812 160.902344 187.183594 C 161.179688 187.960938 161.542969 188.808594 161.992188 189.601562 C 162.4375 190.394531 162.972656 191.136719 163.570312 191.703125 C 163.570312 191.703125 163.84375 191.945312 163.988281 192.054688 C 164.480469 192.4375 165.214844 192.683594 165.996094 192.816406 C 166.777344 192.953125 167.609375 192.980469 168.308594 192.949219 C 169.273438 192.90625 169.972656 192.773438 169.972656 192.777344 C 169.976562 192.773438 169.488281 191.785156 168.863281 190.5625 C 168.492188 189.84375 168.074219 189.046875 167.65625 188.328125 C 167.234375 187.613281 166.808594 186.976562 166.40625 186.597656 C 165.871094 186.097656 165.265625 185.707031 164.644531 185.398438 C 164.027344 185.09375 163.390625 184.871094 162.796875 184.714844 C 161.613281 184.394531 160.597656 184.335938 160.246094 184.367188 C 160.15625 184.371094 160.117188 184.367188 160.117188 184.367188 " fill-opacity="1" fill-rule="nonzero"/><path fill="#fdb716" d="M 163.054688 194.914062 C 163.066406 194.914062 163.488281 196.140625 164.34375 197.632812 C 164.773438 198.378906 165.308594 199.183594 165.9375 199.933594 C 166.5625 200.683594 167.285156 201.371094 168.0625 201.882812 C 168.0625 201.882812 168.414062 202.09375 168.597656 202.191406 C 169.234375 202.527344 170.125 202.6875 171.046875 202.710938 C 171.96875 202.738281 172.925781 202.625 173.699219 202.445312 C 174.773438 202.210938 175.511719 201.898438 175.511719 201.898438 C 175.515625 201.898438 174.847656 201.007812 173.984375 199.921875 C 173.472656 199.28125 172.898438 198.574219 172.324219 197.953125 C 171.753906 197.328125 171.1875 196.785156 170.679688 196.492188 C 170.015625 196.117188 169.273438 195.839844 168.523438 195.628906 C 167.769531 195.417969 167 195.273438 166.285156 195.171875 C 164.859375 194.964844 163.644531 194.929688 163.210938 194.917969 C 163.101562 194.917969 163.054688 194.914062 163.054688 194.914062 " fill-opacity="1" fill-rule="nonzero"/><path fill="#fdb716" d="M 167.707031 204.957031 C 167.71875 204.949219 168.332031 206.109375 169.472656 207.484375 C 170.042969 208.171875 170.742188 208.914062 171.542969 209.582031 C 172.34375 210.25 173.25 210.851562 174.210938 211.269531 C 174.210938 211.269531 174.640625 211.4375 174.863281 211.507812 C 175.640625 211.769531 176.695312 211.808594 177.757812 211.6875 C 178.824219 211.5625 179.894531 211.28125 180.730469 210.929688 C 181.898438 210.46875 182.648438 209.957031 182.648438 209.960938 C 182.652344 209.960938 181.835938 209.1875 180.777344 208.269531 C 180.15625 207.726562 179.449219 207.136719 178.75 206.628906 C 178.054688 206.121094 177.367188 205.699219 176.769531 205.511719 C 176.007812 205.296875 175.144531 205.167969 174.261719 205.085938 C 173.382812 205.007812 172.476562 204.976562 171.628906 204.964844 C 169.929688 204.941406 168.460938 204.992188 167.902344 204.957031 C 167.765625 204.957031 167.707031 204.957031 167.707031 204.957031 " fill-opacity="1" fill-rule="nonzero"/><path fill="#fdb716" d="M 172.171875 172.601562 C 172.164062 172.617188 172.3125 173.574219 172.398438 174.800781 C 172.441406 175.414062 172.46875 176.09375 172.441406 176.769531 C 172.414062 177.445312 172.332031 178.109375 172.148438 178.695312 C 172.148438 178.691406 172.054688 178.949219 172 179.078125 C 171.8125 179.507812 171.390625 179.949219 170.890625 180.378906 C 170.394531 180.808594 169.816406 181.222656 169.3125 181.578125 C 168.621094 182.054688 168.078125 182.390625 168.078125 182.390625 C 168.082031 182.390625 167.792969 181.371094 167.59375 180.078125 C 167.476562 179.320312 167.386719 178.464844 167.378906 177.6875 C 167.371094 176.90625 167.445312 176.199219 167.621094 175.730469 C 167.851562 175.097656 168.207031 174.582031 168.621094 174.164062 C 169.035156 173.75 169.503906 173.433594 169.960938 173.203125 C 170.875 172.738281 171.742188 172.59375 172.058594 172.613281 C 172.136719 172.605469 172.171875 172.601562 172.171875 172.601562 " fill-opacity="1" fill-rule="nonzero"/><path fill="#fdb716" d="M 174.210938 180.648438 C 174.207031 180.660156 174.542969 181.5625 174.859375 182.765625 C 175.015625 183.371094 175.171875 184.050781 175.269531 184.75 C 175.363281 185.445312 175.402344 186.160156 175.320312 186.835938 C 175.320312 186.835938 175.273438 187.136719 175.242188 187.289062 C 175.128906 187.804688 174.773438 188.414062 174.332031 189.03125 C 173.890625 189.644531 173.359375 190.257812 172.886719 190.761719 C 172.234375 191.457031 171.703125 191.929688 171.703125 191.929688 C 171.703125 191.929688 171.21875 190.976562 170.773438 189.730469 C 170.511719 189 170.265625 188.167969 170.117188 187.390625 C 169.964844 186.613281 169.914062 185.890625 170.015625 185.375 C 170.152344 184.691406 170.433594 184.070312 170.792969 183.523438 C 171.152344 182.972656 171.585938 182.5 172.023438 182.105469 C 172.898438 181.316406 173.773438 180.839844 174.097656 180.707031 C 174.175781 180.667969 174.210938 180.648438 174.210938 180.648438 " fill-opacity="1" fill-rule="nonzero"/><path fill="#fdb716" d="M 177.777344 188.023438 C 177.773438 188.035156 178.277344 188.839844 178.816406 189.988281 C 179.085938 190.5625 179.363281 191.222656 179.589844 191.929688 C 179.8125 192.632812 179.980469 193.382812 180.027344 194.144531 C 180.023438 194.144531 180.03125 194.480469 180.027344 194.65625 C 180.007812 195.257812 179.761719 196.035156 179.417969 196.839844 C 179.078125 197.640625 178.636719 198.464844 178.21875 199.128906 C 177.648438 200.050781 177.144531 200.675781 177.144531 200.675781 C 177.144531 200.675781 176.484375 199.820312 175.8125 198.664062 C 175.417969 197.984375 175.019531 197.203125 174.734375 196.453125 C 174.445312 195.699219 174.269531 194.976562 174.292969 194.417969 C 174.328125 193.699219 174.519531 192.972656 174.796875 192.289062 C 175.074219 191.605469 175.4375 190.960938 175.816406 190.394531 C 176.570312 189.257812 177.382812 188.429688 177.671875 188.132812 C 177.746094 188.058594 177.777344 188.023438 177.777344 188.023438 " fill-opacity="1" fill-rule="nonzero"/><path fill="#fdb716" d="M 182.679688 194.480469 C 182.671875 194.492188 183.324219 195.179688 184.066406 196.246094 C 184.4375 196.78125 184.835938 197.414062 185.1875 198.117188 C 185.539062 198.820312 185.847656 199.597656 186.035156 200.429688 C 186.035156 200.429688 186.101562 200.804688 186.128906 201 C 186.226562 201.679688 186.121094 202.621094 185.914062 203.609375 C 185.703125 204.59375 185.394531 205.625 185.054688 206.453125 C 184.601562 207.601562 184.140625 208.382812 184.144531 208.382812 C 184.144531 208.382812 183.339844 207.644531 182.476562 206.601562 C 181.964844 205.992188 181.4375 205.277344 181.03125 204.5625 C 180.621094 203.851562 180.328125 203.140625 180.269531 202.550781 C 180.210938 201.796875 180.289062 200.972656 180.457031 200.15625 C 180.625 199.335938 180.882812 198.523438 181.160156 197.78125 C 181.722656 196.296875 182.382812 195.101562 182.597656 194.640625 C 182.65625 194.53125 182.679688 194.480469 182.679688 194.480469 " fill-opacity="1" fill-rule="nonzero"/><g clip-path="url(#24bbfb236e)"><path fill="#fdb716" d="M 163.460938 167.21875 C 163.613281 166.417969 163.847656 165.617188 164.125 164.878906 C 164.402344 164.140625 164.71875 163.460938 165.019531 162.894531 C 165.324219 162.328125 165.609375 161.867188 165.820312 161.554688 C 166.03125 161.242188 166.171875 161.078125 166.164062 161.085938 C 166.167969 161.078125 166.214844 161.285156 166.296875 161.644531 L 166.636719 163.121094 C 166.773438 163.722656 166.929688 164.414062 167.078125 165.140625 C 167.226562 165.863281 167.363281 166.625 167.453125 167.371094 C 167.515625 167.875 167.550781 168.367188 167.542969 168.832031 C 167.546875 169.324219 167.421875 169.921875 167.242188 170.550781 C 167.0625 171.179688 166.832031 171.839844 166.605469 172.453125 C 166.15625 173.671875 165.730469 174.6875 165.722656 174.710938 C 165.707031 174.691406 165.066406 173.792969 164.457031 172.589844 C 164.152344 171.992188 163.855469 171.316406 163.640625 170.652344 C 163.425781 169.988281 163.292969 169.335938 163.304688 168.800781 C 163.304688 168.292969 163.363281 167.757812 163.460938 167.21875 " fill-opacity="1" fill-rule="nonzero"/></g><g clip-path="url(#19bd5afada)"><path fill="#fdb716" d="M 191.722656 216.804688 C 192.023438 216.40625 192.304688 215.996094 192.570312 215.570312 C 188.808594 213.019531 185.28125 210.160156 182.109375 206.980469 C 178.9375 203.800781 176.121094 200.300781 173.777344 196.53125 C 171.4375 192.761719 169.570312 188.726562 168.25 184.539062 C 166.925781 180.355469 166.140625 176.027344 165.90625 171.695312 C 165.640625 171.703125 165.371094 171.714844 165.101562 171.734375 C 165.308594 176.136719 166.066406 180.542969 167.367188 184.8125 C 168.667969 189.085938 170.519531 193.222656 172.859375 197.09375 C 175.199219 200.96875 178.019531 204.578125 181.207031 207.867188 C 184.390625 211.160156 187.9375 214.136719 191.722656 216.804688 " fill-opacity="1" fill-rule="nonzero"/></g><g clip-path="url(#f434fb7c4e)"><path fill="#fdb716" d="M 187.5 144.578125 C 163.820312 144.578125 144.578125 163.820312 144.578125 187.5 C 144.578125 211.179688 163.820312 230.417969 187.5 230.417969 C 211.179688 230.417969 230.417969 211.179688 230.417969 187.5 C 230.417969 163.820312 211.179688 144.578125 187.5 144.578125 Z M 187.5 146.445312 C 210.195312 146.445312 228.554688 164.800781 228.554688 187.5 C 228.554688 210.195312 210.195312 228.554688 187.5 228.554688 C 164.800781 228.554688 146.445312 210.195312 146.445312 187.5 C 146.445312 164.800781 164.800781 146.445312 187.5 146.445312 Z M 187.5 146.445312 " fill-opacity="1" fill-rule="nonzero"/></g></svg>