<svg xmlns="http://www.w3.org/2000/svg" xmlns:xlink="http://www.w3.org/1999/xlink" width="500" zoomAndPan="magnify" viewBox="0 0 375 374.999991" height="500" preserveAspectRatio="xMidYMid meet" version="1.0"><defs><clipPath id="5d0277c36f"><path d="M 156 162 L 219 162 L 219 216.976562 L 156 216.976562 Z M 156 162 " clip-rule="nonzero"/></clipPath><clipPath id="65afa5637c"><path d="M 160.105469 175.664062 L 214.855469 175.664062 L 214.855469 204.914062 L 160.105469 204.914062 Z M 160.105469 175.664062 " clip-rule="nonzero"/></clipPath><clipPath id="75ce0e3d7c"><path d="M 144.691406 144.691406 L 230.191406 144.691406 L 230.191406 230.191406 L 144.691406 230.191406 Z M 144.691406 144.691406 " clip-rule="nonzero"/></clipPath></defs><g clip-path="url(#5d0277c36f)"><path fill="#fdb716" d="M 217.84375 175.808594 C 214.402344 158.105469 192.832031 157.8125 187.515625 174.359375 C 182.195312 157.8125 160.625 158.105469 157.183594 175.808594 C 154.0625 191.867188 187.515625 217.203125 187.515625 217.203125 C 187.515625 217.203125 220.964844 191.867188 217.84375 175.808594 Z M 217.84375 175.808594 " fill-opacity="1" fill-rule="nonzero"/></g><g clip-path="url(#65afa5637c)"><path fill="#ffffff" d="M 185.882812 175.84375 C 185.523438 176.011719 185.300781 176.289062 185.214844 176.675781 L 181.8125 191.882812 L 178.574219 187.097656 C 178.300781 186.691406 177.921875 186.515625 177.4375 186.570312 C 176.953125 186.625 176.621094 186.878906 176.441406 187.332031 L 173.9375 193.675781 L 161.320312 193.675781 C 161.15625 193.675781 161.003906 193.707031 160.855469 193.769531 C 160.707031 193.828125 160.574219 193.917969 160.460938 194.03125 C 160.347656 194.144531 160.257812 194.277344 160.199219 194.425781 C 160.136719 194.574219 160.105469 194.726562 160.105469 194.890625 C 160.105469 195.050781 160.136719 195.203125 160.199219 195.351562 C 160.257812 195.5 160.347656 195.632812 160.460938 195.746094 C 160.574219 195.859375 160.707031 195.949219 160.855469 196.011719 C 161.003906 196.070312 161.15625 196.101562 161.320312 196.101562 L 174.761719 196.101562 C 175.011719 196.101562 175.238281 196.03125 175.445312 195.890625 C 175.648438 195.753906 175.796875 195.566406 175.890625 195.335938 L 177.855469 190.359375 L 181.378906 195.570312 C 181.515625 195.769531 181.695312 195.917969 181.917969 196.007812 C 182.144531 196.101562 182.375 196.125 182.613281 196.082031 C 182.847656 196.035156 183.054688 195.929688 183.230469 195.761719 C 183.402344 195.59375 183.515625 195.390625 183.570312 195.152344 L 186.289062 182.984375 L 190.222656 204.050781 C 190.269531 204.320312 190.398438 204.542969 190.601562 204.726562 C 190.804688 204.910156 191.042969 205.015625 191.316406 205.035156 C 191.589844 205.058594 191.839844 204.996094 192.070312 204.847656 C 192.300781 204.699219 192.460938 204.496094 192.554688 204.238281 L 197.070312 191.699219 L 199.183594 195.480469 C 199.414062 195.894531 199.765625 196.101562 200.242188 196.101562 L 213.683594 196.101562 C 213.84375 196.101562 214 196.070312 214.148438 196.011719 C 214.296875 195.949219 214.429688 195.859375 214.542969 195.746094 C 214.65625 195.632812 214.742188 195.5 214.804688 195.351562 C 214.867188 195.203125 214.898438 195.050781 214.898438 194.890625 C 214.898438 194.726562 214.867188 194.574219 214.804688 194.425781 C 214.742188 194.277344 214.65625 194.144531 214.542969 194.03125 C 214.429688 193.917969 214.296875 193.828125 214.148438 193.769531 C 214 193.707031 213.84375 193.675781 213.683594 193.675781 L 200.953125 193.675781 L 197.890625 188.1875 C 197.773438 187.980469 197.609375 187.820312 197.402344 187.710938 C 197.191406 187.597656 196.96875 187.550781 196.730469 187.570312 C 196.496094 187.589844 196.28125 187.671875 196.09375 187.816406 C 195.902344 187.960938 195.769531 188.144531 195.6875 188.367188 L 191.785156 199.210938 L 187.589844 176.71875 C 187.554688 176.535156 187.484375 176.367188 187.371094 176.21875 C 187.257812 176.066406 187.117188 175.949219 186.953125 175.863281 C 186.785156 175.777344 186.605469 175.734375 186.417969 175.730469 C 186.230469 175.726562 186.054688 175.765625 185.882812 175.84375 Z M 185.882812 175.84375 " fill-opacity="1" fill-rule="nonzero"/></g><g clip-path="url(#75ce0e3d7c)"><path fill="#000000" d="M 187.441406 144.691406 C 163.855469 144.691406 144.691406 163.855469 144.691406 187.441406 C 144.691406 211.027344 163.855469 230.191406 187.441406 230.191406 C 211.027344 230.191406 230.191406 211.027344 230.191406 187.441406 C 230.191406 163.855469 211.027344 144.691406 187.441406 144.691406 Z M 187.441406 146.550781 C 210.046875 146.550781 228.332031 164.832031 228.332031 187.441406 C 228.332031 210.046875 210.046875 228.332031 187.441406 228.332031 C 164.832031 228.332031 146.550781 210.046875 146.550781 187.441406 C 146.550781 164.832031 164.832031 146.550781 187.441406 146.550781 Z M 187.441406 146.550781 " fill-opacity="1" fill-rule="nonzero"/></g></svg>